<?xml version="1.0" standalone="no"?>
<!DOCTYPE svg PUBLIC "-//W3C//DTD SVG 20010904//EN"
 "http://www.w3.org/TR/2001/REC-SVG-20010904/DTD/svg10.dtd">
<svg version="1.0" xmlns="http://www.w3.org/2000/svg"
 width="800.000000pt" height="800.000000pt" viewBox="0 0 800.000000 800.000000"
 preserveAspectRatio="xMidYMid meet">
<metadata>
Created by potrace 1.11, written by Peter Selinger 2001-2013
</metadata>
<g transform="translate(0.000000,800.000000) scale(0.100000,-0.100000)"
fill="#000000" stroke="none">
<path d="M2149 5613 l-135 -4 -16 -47 c-35 -102 -50 -138 -64 -153 -8 -9 -11
-19 -7 -22 3 -4 75 -7 158 -7 175 0 158 -11 199 125 33 111 33 109 16 110 -8
0 -76 -1 -151 -2z"/>
<path d="M4880 5608 c0 -2 -12 -34 -25 -73 -14 -38 -37 -104 -50 -145 -70
-212 -96 -287 -104 -305 -6 -11 -21 -56 -35 -100 -13 -44 -56 -172 -95 -285
-39 -113 -81 -234 -92 -270 -12 -36 -25 -69 -30 -75 -21 -21 -2 -25 129 -25
l138 0 16 48 c83 246 106 301 134 326 40 35 52 32 63 -11 11 -42 28 -105 65
-235 13 -48 22 -96 19 -108 -5 -20 -1 -20 171 -20 160 0 197 6 167 25 -5 3
-13 20 -16 38 -4 17 -24 84 -45 147 -20 63 -52 161 -70 217 l-34 101 35 29
c18 15 68 57 109 93 125 108 250 213 288 243 l36 27 -167 0 -167 0 -63 -57
c-34 -31 -84 -78 -112 -103 -55 -50 -155 -141 -197 -179 -15 -13 -30 -22 -32
-20 -5 5 84 280 104 324 8 19 24 65 94 282 19 56 31 105 28 108 -5 5 -262 8
-262 3z"/>
<path d="M1856 5563 c-4 -5 -233 -10 -508 -13 l-500 -5 -28 -88 c-16 -49 -35
-96 -44 -106 -32 -35 -7 -42 135 -37 74 2 156 7 183 11 45 7 48 6 43 -11 -3
-11 -40 -118 -82 -239 -41 -121 -102 -301 -135 -400 -33 -99 -65 -189 -70
-200 -5 -11 -18 -48 -29 -82 l-18 -61 146 -4 c122 -3 148 -1 159 11 7 9 26 56
42 106 16 49 63 189 105 310 42 121 85 249 96 285 11 36 26 79 34 95 7 17 23
63 34 103 l22 72 178 0 c131 0 181 3 188 13 10 12 23 48 64 170 18 55 18 77 0
77 -4 0 -11 -3 -15 -7z"/>
<path d="M6882 5488 c-3 -12 -22 -69 -42 -127 l-36 -106 -59 -5 -59 -5 -22
-74 c-12 -40 -27 -78 -33 -84 -6 -6 -11 -17 -11 -25 0 -11 12 -12 55 -7 66 9
67 4 31 -88 -14 -34 -34 -96 -46 -137 -12 -41 -25 -79 -30 -85 -8 -12 -56
-184 -65 -236 -5 -24 0 -57 11 -94 17 -54 22 -60 69 -81 46 -22 59 -23 160
-18 61 3 139 10 175 15 l65 10 34 95 c18 52 31 97 28 100 -3 3 -20 -2 -38 -11
-47 -25 -143 -24 -177 2 -44 33 -40 66 42 308 l74 220 151 -4 c131 -3 151 -1
146 12 -7 16 19 113 41 155 l14 27 -135 3 c-94 2 -135 6 -135 14 0 18 41 162
50 173 4 6 12 25 18 43 l11 32 -140 0 c-136 0 -141 -1 -147 -22z"/>
<path d="M3503 5489 c-168 -20 -375 -85 -543 -172 -303 -158 -595 -433 -759
-717 -24 -41 -56 -96 -72 -123 -34 -56 -65 -130 -126 -292 -89 -240 -123 -405
-123 -611 0 -141 10 -220 41 -302 93 -254 276 -399 599 -473 130 -30 483 -33
600 -5 288 69 382 98 555 167 l100 40 49 147 c27 81 55 161 62 177 8 17 25 66
38 110 14 44 33 102 42 128 9 26 14 50 11 53 -8 8 -45 -13 -129 -72 -84 -58
-317 -186 -380 -208 -24 -8 -59 -21 -78 -29 -51 -22 -241 -57 -307 -57 -67 0
-223 35 -277 62 -85 43 -184 158 -171 199 5 16 4 19 -5 14 -8 -5 -11 -4 -7 1
3 5 -1 34 -9 64 -24 92 -18 269 12 385 32 126 69 236 100 302 13 28 24 54 24
56 0 10 87 155 127 212 70 101 161 197 256 267 118 89 181 123 302 160 90 28
113 31 235 32 124 0 141 -2 208 -28 40 -15 77 -24 84 -20 7 5 8 3 4 -5 -5 -8
-3 -12 5 -10 8 1 19 1 25 0 22 -2 173 -121 201 -157 15 -20 38 -46 51 -57 12
-11 22 -31 22 -44 0 -16 7 -24 24 -29 33 -8 66 4 60 21 -3 7 14 66 37 132 23
65 50 145 60 178 9 33 36 112 59 175 22 63 42 119 43 123 1 5 -52 38 -118 72
-131 70 -277 115 -435 134 -97 13 -391 12 -497 0z"/>
<path d="M6044 5255 c-121 -31 -205 -76 -293 -160 -132 -124 -231 -339 -231
-498 0 -62 25 -139 55 -167 14 -13 25 -29 25 -37 0 -29 114 -74 205 -80 151
-10 286 4 417 45 l87 27 21 60 c11 33 29 86 39 117 21 63 23 62 -54 22 -148
-77 -334 -101 -429 -54 -58 30 -86 72 -86 133 0 78 -25 72 328 69 l317 -3 28
88 c56 176 59 276 10 351 -67 103 -240 138 -439 87z m206 -256 c0 -27 -5 -60
-12 -74 l-11 -25 -173 0 c-128 0 -173 3 -176 12 -6 16 27 73 61 111 40 44 76
58 170 66 82 7 87 6 114 -18 22 -20 27 -33 27 -72z"/>
<path d="M2030 5250 l-134 -5 -18 -60 c-10 -33 -22 -69 -28 -80 -9 -19 -57
-160 -192 -565 -32 -96 -62 -183 -68 -192 -9 -16 2 -17 128 -20 75 -2 142 -2
148 0 6 2 19 27 27 55 9 29 35 104 57 167 22 63 52 151 65 195 14 44 29 89 35
100 5 11 36 101 69 200 33 99 63 188 66 198 5 11 3 16 -6 15 -8 -1 -75 -5
-149 -8z"/>
<path d="M5466 4133 c-20 -60 -47 -142 -61 -183 -13 -41 -58 -174 -100 -295
-41 -121 -102 -299 -134 -395 -49 -145 -80 -225 -109 -282 -7 -14 275 -9 285
5 5 6 21 50 36 97 25 78 119 355 202 595 19 55 47 138 61 185 14 47 29 90 32
95 4 6 27 72 53 148 l46 137 -138 0 -138 0 -35 -107z"/>
<path d="M4514 3894 c-149 -20 -142 -15 -179 -130 -18 -54 -31 -101 -28 -104
2 -2 18 2 36 9 108 44 286 64 366 41 70 -20 101 -78 67 -126 -13 -18 -30 -22
-118 -28 -57 -3 -132 -11 -168 -17 -131 -22 -282 -98 -340 -171 -40 -52 -79
-138 -85 -192 -10 -78 1 -121 41 -166 28 -31 47 -41 91 -51 103 -21 204 1 325
71 37 21 70 35 73 30 7 -11 -10 -56 -24 -65 -33 -20 -1 -25 130 -23 l140 3 24
70 c14 39 52 151 85 250 33 99 65 189 70 200 5 11 19 54 30 95 37 137 21 219
-51 267 -75 49 -279 65 -485 37z m190 -490 c13 -5 14 -10 2 -32 -7 -15 -23
-58 -35 -97 -23 -76 -41 -95 -112 -120 -48 -17 -142 -20 -170 -4 -32 17 -40
52 -23 108 24 80 68 108 215 135 91 17 103 18 123 10z"/>
<path d="M6234 3900 c-162 -23 -273 -78 -390 -196 -70 -69 -93 -101 -129 -175
-106 -217 -99 -415 18 -500 64 -47 99 -59 216 -71 92 -10 120 -9 201 6 111 20
183 49 198 79 6 12 21 57 33 99 12 43 30 87 41 98 17 18 17 21 3 26 -10 4 -27
-3 -43 -19 -69 -64 -214 -114 -302 -104 -65 8 -95 24 -125 68 -38 54 -36 128
5 236 46 121 124 210 218 250 45 19 164 22 212 5 38 -14 91 -56 94 -75 7 -50
50 -40 70 17 57 164 64 191 54 203 -33 41 -248 71 -374 53z"/>
</g>
</svg>
